<svg width="24" height="24" viewBox="0 0 24 24" fill="none" xmlns="http://www.w3.org/2000/svg">
<path d="M21.5 6H6.5C5.6 6 5 6.6 5 7.5V18C5 18.9 5.6 19.5 6.5 19.5H12.5V18H6.5V7.5H21.5V18H16.1L12.5 23.1L13.7 24L16.85 19.5H21.5C22.4 19.5 23 18.9 23 18V7.5C23 6.6 22.4 6 21.5 6Z" fill="white"/>
<path d="M3.5 14.25C3.5 14.6642 3.16421 15 2.75 15V15C2.33579 15 2 14.6642 2 14.25V5.25C2 3.975 2.975 3 4.25 3H13.25C13.6642 3 14 3.33579 14 3.75V3.75C14 4.16421 13.6642 4.5 13.25 4.5H4.25C3.8 4.5 3.5 4.8 3.5 5.25V14.25Z" fill="white"/>
</svg>
